<?xml version="1.0" encoding="UTF-8" standalone="no"?>
<svg
   viewBox="0 0 24 24"
   version="1.1"
   id="svg52"
   sodipodi:docname="shield-lock-open.svg"
   inkscape:version="1.2.2 (b0a8486541, 2022-12-01)"
   xmlns:inkscape="http://www.inkscape.org/namespaces/inkscape"
   xmlns:sodipodi="http://sodipodi.sourceforge.net/DTD/sodipodi-0.dtd"
   xmlns="http://www.w3.org/2000/svg"
   xmlns:svg="http://www.w3.org/2000/svg">
  <defs
     id="defs56" />
  <sodipodi:namedview
     id="namedview54"
     pagecolor="#ffffff"
     bordercolor="#666666"
     borderopacity="1.0"
     inkscape:showpageshadow="2"
     inkscape:pageopacity="0.0"
     inkscape:pagecheckerboard="0"
     inkscape:deskcolor="#d1d1d1"
     showgrid="false"
     inkscape:zoom="39.958333"
     inkscape:cx="7.270073"
     inkscape:cy="11.987487"
     inkscape:window-width="1920"
     inkscape:window-height="1131"
     inkscape:window-x="0"
     inkscape:window-y="32"
     inkscape:window-maximized="1"
     inkscape:current-layer="svg52" />
  <path
     d="M12 1L3 5V11C3 16.5 6.8 21.7 12 23C17.2 21.7 21 16.5 21 11V5L12 1M16 15.8C16 16.4 15.4 17 14.7 17H9.2C8.6 17 8 16.4 8 15.7V12.2C8 11.6 8.6 11 9.2 11V8.5C9.2 7.1 10.6 6 12 6S14.8 7.1 14.8 8.5V9H13.5V8.5C13.5 7.7 12.8 7.2 12 7.2S10.5 7.7 10.5 8.5V11H14.8C15.4 11 16 11.6 16 12.3V15.8Z"
     id="path50"
     style="fill:#1fa385;fill-opacity:1" />
</svg>
